<?xml version="1.0" encoding="UTF-8"?>
<!-- Generator: Adobe Illustrator 28.2.0, SVG Export Plug-In . SVG Version: 6.00 Build 0)  -->
<svg version="1.1" id="Layer_1" xmlns="http://www.w3.org/2000/svg" xmlns:xlink="http://www.w3.org/1999/xlink" x="0px" y="0px" viewBox="0 0 710 256" style="enable-background:new 0 0 710 256;" xml:space="preserve">
<style type="text/css">
	.st0{fill:#3C0D99;}
	.st1{fill:#243E63;}
	.st2{fill:#515151;}
</style>
<g>
	<path class="st0" d="M430.3,158.8l-60.8-75.1h-53.7l-85.5,105.6H284l12.2-15.1h92.9l12.2,15.1h29L430.3,158.8L430.3,158.8z    M320.6,144l22-27.1l22,27.1H320.6z"/>
	<path class="st1" d="M5.9,83.7h47.7v105.6H5.9V83.7z"/>
	<polygon class="st1" points="219.5,189.3 223.8,184 266.1,131.7 266.1,83.7 218.5,83.7 218.5,144 113.2,83.7 65.6,83.7 65.6,189.3    113.2,189.3 113.2,129 218.5,189.3  "/>
	<path class="st0" d="M438.7,83.7h47.7L591.6,144V83.7h47.6v105.6h-47.6L486.3,129v60.3h-47.7V83.7H438.7z"/>
	<g>
		<rect x="651.3" y="18.9" class="st2" width="12.1" height="93.6"/>
		<rect x="610.5" y="59.7" class="st2" width="93.6" height="12.1"/>
	</g>
	<g>
		<path class="st2" d="M358.5,207.5v29.3h-5.9v-19.1l-7.8,19.1h-4.4l-7.9-19.1v19.1h-5.9v-29.3h6.7l9.3,21.8l9.3-21.8H358.5z"/>
		<path class="st2" d="M384.3,231.2h-11.7l-1.9,5.6h-6.2l10.5-29.3h6.8l10.5,29.3h-6.2L384.3,231.2z M382.7,226.5l-4.2-12.3    l-4.2,12.3H382.7z"/>
		<path class="st2" d="M423.5,236.8h-5.9l-13.3-20.1v20.1h-5.9v-29.3h5.9l13.3,20.1v-20.1h5.9V236.8z"/>
		<path class="st2" d="M449.4,231.2h-11.7l-1.9,5.6h-6.2l10.5-29.3h6.8l10.5,29.3h-6.2L449.4,231.2z M447.8,226.5l-4.2-12.3    l-4.2,12.3H447.8z"/>
		<path class="st2" d="M484,216.3c-0.7-1.2-1.6-2.2-2.8-2.8c-1.2-0.6-2.5-1-4.1-1c-1.7,0-3.3,0.4-4.6,1.2c-1.3,0.8-2.4,1.9-3.1,3.4    c-0.8,1.5-1.1,3.1-1.1,5c0,2,0.4,3.7,1.2,5.1c0.8,1.5,1.8,2.6,3.2,3.4c1.4,0.8,3,1.2,4.8,1.2c2.2,0,4.1-0.6,5.5-1.8s2.4-2.8,2.8-5    h-10.1v-4.5h15.9v5.1c-0.4,2-1.2,3.9-2.5,5.7c-1.3,1.7-2.9,3.1-5,4.2c-2,1.1-4.3,1.6-6.8,1.6c-2.8,0-5.4-0.6-7.7-1.9    s-4.1-3-5.4-5.3s-1.9-4.8-1.9-7.7s0.6-5.5,1.9-7.7c1.3-2.3,3.1-4.1,5.4-5.3s4.8-1.9,7.6-1.9c3.3,0,6.2,0.8,8.6,2.4    c2.4,1.6,4.1,3.9,5,6.8H484V216.3z"/>
		<path class="st2" d="M503.8,212.3v7.3h9.9v4.7h-9.9v7.8h11.1v4.8h-17v-29.3h17v4.8h-11.1L503.8,212.3L503.8,212.3z"/>
		<path class="st2" d="M554.2,207.5v29.3h-5.9v-19.1l-7.8,19.1h-4.4l-7.9-19.1v19.1h-5.9v-29.3h6.7l9.3,21.8l9.3-21.8H554.2z"/>
		<path class="st2" d="M568,212.3v7.3h9.9v4.7H568v7.8h11.1v4.8h-17v-29.3h17v4.8H568V212.3z"/>
		<path class="st2" d="M611.6,236.8h-5.9l-13.3-20.1v20.1h-5.9v-29.3h5.9l13.3,20.1v-20.1h5.9V236.8z"/>
		<path class="st2" d="M639.4,207.5v4.7h-7.8v24.5h-5.9v-24.5h-7.8v-4.7H639.4z"/>
	</g>
</g>
</svg>